<svg xmlns="http://www.w3.org/2000/svg" version="1.1" xmlns:xlink="http://www.w3.org/1999/xlink" xmlns:svgjs="http://svgjs.dev/svgjs" width="1500" height="1500" viewBox="0 0 1500 1500"><g transform="matrix(1,0,0,1,-0.7499999999998863,-0.7490466101694437)"><svg viewBox="0 0 280 280" data-background-color="#ffffff" preserveAspectRatio="xMidYMid meet" height="1500" width="1500" xmlns="http://www.w3.org/2000/svg" xmlns:xlink="http://www.w3.org/1999/xlink"><g id="tight-bounds" transform="matrix(1,0,0,1,0.13999999999998636,0.13982203389829806)"><svg viewBox="0 0 279.72 279.72" height="279.72" width="279.72"><g><svg viewBox="0 0 279.72 279.72" height="279.72" width="279.72"><g><svg viewBox="0 0 279.72 279.72" height="279.72" width="279.72"><g id="textblocktransform"><svg viewBox="0 0 279.72 279.72" height="279.72" width="279.72" id="textblock"><g><svg viewBox="0 0 279.72 279.72" height="279.72" width="279.72"><g transform="matrix(1,0,0,1,57.446704652707865,57.446704652707865)"><svg viewBox="0 0 164.8265906945843 164.8265906945843" height="164.8265906945843" width="164.8265906945843"><g id="icon-0"><circle r="82" cx="82.41329534729215" cy="82.41329534729215" fill="#f36527" data-fill-palette-color="accent"></circle><svg xmlns="http://www.w3.org/2000/svg" xmlns:xlink="http://www.w3.org/1999/xlink" version="1.1" viewBox="1.865159745668008 3.6785791332039492 96.64166156234678 93.07542086679605" overflow="visible" enable-background="new 0 0 100.505 100.501" xml:space="preserve" x="24.72398860418764" y="24.723988604187646" height="115.378613486209" width="115.378613486209" class="icon-xg-0" data-fill-palette-color="quaternary" id="xg-0"><g fill="#ffffff" data-fill-palette-color="quaternary"><g fill="#ffffff" data-fill-palette-color="quaternary"><path d="M51.455 33.651c-2.642 0.258-4.492 1.073-6 2.1-2.131 1.451-4.391 4.132-5.899 6.5-1.501 2.357-2.862 5.37-3.501 9.002-1.46 8.29 1.189 14.861 7.201 16.898 3.271 1.108 7.11-0.19 9.099-1.602 4.786-3.391 7.639-9.863 9.199-16.6 0.528-2.279 1.199-4.765 1-7.699C62.171 36.517 56.996 33.108 51.455 33.651zM79.456 73.953c-7.459 3.082-20.015 2.982-21.1-6.002-0.457-0.07-0.664 0.465-0.901 0.7-2.188 2.189-4.894 4.271-8.199 5.502-3.991 1.484-9.267 1.448-13.101-0.4-6.489-3.133-11.001-10.994-9.8-21.202 1.054-8.958 5.713-15.28 11.4-20 4.758-3.948 15.625-8.822 23.1-3.399 2.344 1.702 3.923 3.867 5.2 6.8 0.93-2.172 1.554-4.647 2.4-6.9 2.899 0 5.8 0 8.699 0-2.85 9.009-5.617 17.436-8.5 26.601-0.815 2.593-2.841 6.264-2.1 9.299 0.517 2.117 2.634 3.411 5 3.503 5.657 0.213 9.204-3.592 11.7-6.702 2.788-3.476 4.858-7.579 5.699-12.6 2.051-12.248-3.376-20.577-9.199-26.4-5.993-5.994-14.26-10.627-25.701-10.899-12.271-0.296-20.544 3.6-27.399 9.2-6.466 5.279-12.229 12.687-14.6 21.999-2.846 11.187-0.133 22.47 4.801 29.4 4.844 6.809 12.536 12.487 21.799 14.8 10.713 2.677 22.493 0.978 31.9-1.898 1.331 2.034 2.089 4.645 3.101 7.001-6.956 2.52-14.125 4.398-22.9 4.398-8.852 0-16.39-1.667-22.7-4.5C15.964 86.826 5.933 77.156 2.854 63.053c-3.742-17.147 3.808-32.345 11.401-41.202 4.189-4.886 9.093-8.896 15.099-12.1 5.871-3.133 13.671-5.625 21.601-6 13.701-0.648 22.799 3.12 30.5 8.6 7.646 5.441 13.772 12.429 16.2 22.901 1.27 5.474 1.106 12.379-0.399 17.399-1.44 4.792-4.091 9.12-6.901 12.6C87.513 68.77 84.25 71.969 79.456 73.953z" fill="#ffffff" data-fill-palette-color="quaternary"></path></g></g></svg></g></svg></g><g id="text-0"><path d="M14.603 80.945v0l24.675-2.989c0.985-0.133 1.745-0.082 2.279 0.152 0.528 0.232 0.83 0.617 0.904 1.157 0.075 0.54-0.012 1.092-0.259 1.657v0l-5.008 11.413c-0.509 1.16-1.048 1.81-1.616 1.951v0c-0.182 0.036-0.489 0.057-0.919 0.064v0l-2.647 0.067c-0.819 0.003-1.524 0.552-2.113 1.647v0l-2.937 6.694c-0.218 0.498-0.339 0.897-0.363 1.199-0.017 0.304 0.102 0.61 0.358 0.917v0l2.262 2.643c0.321 0.423 0.499 0.809 0.534 1.158 0.027 0.352-0.079 0.798-0.315 1.339v0l-1.403 3.197c-0.402 0.917-0.95 1.267-1.644 1.049v0c-0.102-0.016-0.201-0.045-0.299-0.088v0c-0.546-0.24-0.987-0.647-1.321-1.22v0l-14.702-19.669c-1.374-1.87-1.537-3.998-0.489-6.385v0l1.242-2.832c0.831-1.895 2.091-2.935 3.781-3.121zM18.639 96.402v0l2.509 3.045c0.17 0.19 0.337 0.322 0.501 0.394v0c0.613 0.269 1.049 0.109 1.308-0.48v0l1.414-3.225c0.218-0.498 0.245-0.896 0.079-1.193-0.166-0.297-0.344-0.487-0.532-0.57-0.188-0.083-0.391-0.132-0.609-0.147v0l-3.643 0.009c-0.739 0.016-1.206 0.249-1.403 0.698-0.197 0.449-0.072 0.939 0.376 1.469z" fill="#6f605b" data-fill-palette-color="primary"></path><path d="M61.589 59.265v0c-1.117 1.331-2.82 3.131-5.109 5.4-2.289 2.269-3.883 3.783-4.781 4.543-0.899 0.76-1.677 1.233-2.335 1.418-0.657 0.175-1.259 0.025-1.805-0.451v0c-2.069-1.871-4.361-4.075-6.878-6.614-2.516-2.538-5.146-5.262-7.89-8.172v0c-1.704-1.794-1.813-3.534-0.329-5.22v0c1.046-1.186 2.723-2.923 5.03-5.21 2.308-2.287 4.149-4.047 5.524-5.279 1.37-1.237 2.933-2.189 4.689-2.856 1.757-0.667 3.429-0.934 5.018-0.801v0c3.276 0.272 6.077 1.581 8.402 3.926v0c2.451 2.472 3.844 5.47 4.18 8.993v0c0.157 1.693-0.076 3.446-0.698 5.258-0.618 1.817-1.624 3.505-3.018 5.065zM47.223 47.245v0l6.596 6.654c0.145 0.146 0.334 0.229 0.569 0.249 0.239 0.015 0.45-0.068 0.634-0.251v0c1.173-1.162 1.675-2.459 1.508-3.889-0.167-1.431-0.797-2.697-1.889-3.8-1.088-1.097-2.325-1.766-3.712-2.006-1.382-0.245-2.558 0.113-3.528 1.074v0c-0.24 0.238-0.415 0.43-0.523 0.575v0c-0.26 0.435-0.145 0.9 0.345 1.394z" fill="#6f605b" data-fill-palette-color="primary"></path><path d="M120.658 28.008v0c0.107 0.554-0.009 1.118-0.348 1.691-0.339 0.573-0.879 0.977-1.62 1.211v0c-1.399 0.448-3.104 0.915-5.115 1.402-2.004 0.485-3.857 0.879-5.558 1.182v0c-0.767 0.131-1.432 0.019-1.995-0.336-0.563-0.355-0.924-0.803-1.083-1.344v0c-1.001-3.797-1.827-7.042-2.479-9.736-0.652-2.694-1.117-4.672-1.396-5.936v0c-0.229-0.947-0.769-1.318-1.62-1.112v0l-3.384 0.819c-0.528 0.128-0.987 0.106-1.377-0.066-0.383-0.173-0.67-0.571-0.862-1.193-0.19-0.616-0.367-1.262-0.53-1.939-0.164-0.677-0.286-1.265-0.366-1.763-0.08-0.499 0.029-0.921 0.328-1.267 0.303-0.353 0.668-0.581 1.093-0.684v0c3.249-0.841 7.654-1.935 13.216-3.281 5.568-1.348 9.561-2.287 11.977-2.818v0c0.438-0.079 0.868-0.036 1.29 0.128 0.42 0.158 0.709 0.477 0.866 0.957 0.157 0.48 0.315 1.046 0.472 1.697 0.158 0.651 0.297 1.282 0.418 1.895v0c0.196 1.147-0.283 1.859-1.437 2.138v0l-3.384 0.82c-0.851 0.206-1.17 0.747-0.958 1.623v0c0.842 3.139 1.572 5.988 2.192 8.547 0.619 2.559 1.173 5.014 1.66 7.365z" fill="#6f605b" data-fill-palette-color="primary"></path><path d="M141.019 9.023v0l7.546 0.199c0.875 0.023 1.456 0.234 1.745 0.633 0.288 0.392 0.458 1.256 0.508 2.591 0.058 1.328 0.04 3.752-0.052 7.272-0.093 3.52-0.235 6-0.426 7.441v0c-0.091 0.435-0.32 0.817-0.687 1.146-0.373 0.322-1.018 0.504-1.934 0.546-0.916 0.042-2.008 0.046-3.274 0.013-1.259-0.033-2.405-0.097-3.438-0.191-1.032-0.094-1.723-0.311-2.072-0.651-0.356-0.348-0.551-0.741-0.586-1.18v0c-0.141-1.682-0.166-4.256-0.075-7.723 0.092-3.473 0.207-5.838 0.347-7.095 0.14-1.263 0.354-2.083 0.642-2.461 0.295-0.384 0.881-0.564 1.756-0.54zM145.446 0.006v0c1.697 0.045 2.971 0.42 3.821 1.125 0.844 0.712 1.25 1.658 1.218 2.838v0c-0.074 2.791-1.967 4.137-5.678 4.039v0c-1.498-0.04-2.766-0.398-3.803-1.075-1.044-0.671-1.548-1.649-1.514-2.936v0c0.073-2.764 2.058-4.095 5.956-3.991z" fill="#6f605b" data-fill-palette-color="primary"></path><path d="M181.243 21.789v0c-1.16-0.333-2.138-0.196-2.933 0.411-0.787 0.602-1.344 1.474-1.67 2.615-0.327 1.141-0.274 2.219 0.159 3.232 0.435 1.008 1.396 1.725 2.881 2.151v0c0.472 0.135 1.202 0.21 2.191 0.225 0.989 0.015 1.669 0.075 2.038 0.181v0c0.867 0.249 1.087 1.212 0.662 2.89v0c-0.207 0.72-0.44 1.378-0.7 1.972-0.267 0.593-0.86 0.905-1.78 0.938v0c-2.699 0.054-4.998-0.192-6.898-0.736-1.899-0.545-3.429-1.056-4.589-1.533-1.166-0.479-2.304-1.106-3.414-1.879-1.101-0.778-1.957-1.63-2.567-2.557-0.606-0.919-0.994-2.041-1.166-3.367-0.165-1.324 0.01-2.884 0.525-4.681 0.515-1.797 1.365-3.292 2.548-4.485 1.19-1.19 2.573-1.959 4.149-2.307v0c2.974-0.651 6.395-0.422 10.264 0.687v0c2.084 0.598 4.108 1.54 6.07 2.827v0c0.834 0.556 1.007 1.686 0.519 3.388-0.486 1.696-1.163 2.419-2.03 2.17v0c-0.37-0.106-1.005-0.44-1.906-1.002-0.899-0.568-1.684-0.948-2.353-1.14z" fill="#6f605b" data-fill-palette-color="primary"></path><path d="M215.421 57.143l-4.49-2.894-3.521-2.393c-0.817-0.544-1.222-1.168-1.215-1.872v0l0.178-6.764c-0.083-0.246-0.152-0.364-0.208-0.353-0.055 0.011-0.319 0.365-0.791 1.062-0.474 0.688-1.238 1.705-2.293 3.05v0c-0.272 0.313-0.651 0.511-1.136 0.594-0.487 0.074-1.104-0.106-1.852-0.54-0.747-0.434-1.631-0.99-2.652-1.67-1.021-0.68-2.131-1.466-3.328-2.359v0c-0.504-0.368-0.81-0.782-0.917-1.244-0.116-0.46-0.075-0.886 0.124-1.28v0c1.53-2.765 3.754-6.339 6.672-10.721 2.914-4.377 5.125-7.506 6.631-9.386v0c0.546-0.688 1.044-1.125 1.495-1.312 0.447-0.181 1.023-0.036 1.73 0.435v0l6.184 4.118c0.712 0.474 1.074 0.954 1.085 1.439 0.013 0.495-0.19 1.128-0.608 1.901v0c-1.115 1.95-3.139 5.128-6.072 9.532v0c-0.327 0.491-0.405 0.794-0.234 0.908v0c0.11 0.073 0.271 0.089 0.483 0.047v0l6.797-1.056c0.577-0.078 1.018-0.087 1.321-0.028 0.3 0.064 0.662 0.238 1.087 0.521v0l4.703 3.131c0.281 0.187 0.364 0.506 0.249 0.954v0c-0.015 0.118-0.079 0.262-0.193 0.433-0.114 0.171-0.35 0.293-0.709 0.365v0l-7.091 0.942c-0.289 0.063-0.412 0.248-0.37 0.555v0c0.444 3.761 0.741 8.017 0.891 12.769v0c0.024 0.478-0.05 0.847-0.223 1.106v0c-0.356 0.535-0.932 0.539-1.727 0.01z" fill="#6f605b" data-fill-palette-color="primary"></path><path d="M240.86 57.887c1.184 0.582 2.264 1.288 3.237 2.118 0.974 0.83 2.027 1.972 3.16 3.426 1.133 1.454 2.036 2.982 2.712 4.583 0.675 1.601 0.959 2.964 0.852 4.089v0c-0.231 2.012-1.1 3.605-2.607 4.778v0c-2.359 1.837-5.091 0.763-8.196-3.223v0c-1.096-1.407-2.1-2.966-3.012-4.677v0c-1.29 1.106-2.039 2.092-2.246 2.96-0.211 0.862 0.119 1.853 0.991 2.972 0.872 1.12 1.713 1.952 2.524 2.497 0.816 0.541 1.528 0.937 2.135 1.187 0.597 0.249 1.02 0.533 1.269 0.852 0.244 0.314 0.313 0.693 0.206 1.139v0c-0.097 0.63-0.468 1.196-1.112 1.697-0.638 0.497-1.175 0.709-1.61 0.636-0.431-0.068-0.973-0.289-1.625-0.663v0c-2.318-1.304-4.865-3.738-7.64-7.3v0c-2.298-2.951-3.482-5.928-3.552-8.933-0.061-3.003 1.109-5.44 3.51-7.31v0c1.156-0.9 2.383-1.516 3.681-1.845 1.302-0.325 2.549-0.38 3.742-0.166 1.198 0.21 2.391 0.605 3.581 1.183zM244.189 66.678v0c-0.966-1.24-2.496-1.128-4.592 0.336v0c0.683 1.039 1.041 1.58 1.074 1.622v0c1.043 1.339 2.012 1.661 2.906 0.964v0c1.198-0.933 1.402-1.907 0.612-2.922z" fill="#6f605b" data-fill-palette-color="primary"></path><path d="M251.622 92.118l4.797-1.853c0.384-0.148 0.473-0.488 0.267-1.02v0c-0.361-0.934-0.259-1.609 0.305-2.026v0c0.273-0.212 0.735-0.444 1.385-0.695 0.649-0.251 1.148-0.34 1.496-0.268 0.348 0.072 0.687 0.343 1.017 0.812 0.328 0.463 0.737 0.842 1.227 1.136 0.486 0.303 1.537 0.896 3.151 1.779 1.614 0.884 2.69 1.517 3.228 1.899 0.535 0.391 0.95 0.969 1.246 1.737v0l0.699 1.809c0.325 0.841 0.441 1.447 0.349 1.816-0.094 0.363-0.358 0.629-0.79 0.796v0l-3.424 1.322c-0.507 0.196-0.677 0.51-0.51 0.943v0l1.494 3.87c0.241 0.625 0.283 1.128 0.124 1.508-0.161 0.375-0.715 0.745-1.661 1.111-0.953 0.368-1.617 0.461-1.993 0.279-0.378-0.188-0.678-0.57-0.9-1.145v0l-1.451-3.758c-0.129-0.334-0.296-0.518-0.502-0.553-0.205-0.034-0.466 0.009-0.781 0.131v0l-4.333 1.674c-0.797 0.365-1.362 0.938-1.692 1.719-0.339 0.778-0.31 1.683 0.089 2.717v0c0.196 0.507 0.578 1.081 1.145 1.722 0.565 0.635 0.899 1.085 1.002 1.351v0c0.251 0.649-0.589 1.347-2.519 2.092v0c-1.392 0.537-2.378 0.488-2.958-0.148v0c-0.562-0.664-1.197-1.663-1.903-2.996-0.704-1.327-1.327-2.69-1.867-4.088-0.54-1.398-0.939-2.772-1.197-4.123-0.258-1.35-0.299-2.653-0.123-3.908v0c0.4-2.479 2.261-4.36 5.583-5.642z" fill="#6f605b" data-fill-palette-color="primary"></path><path d="M10.419 144.57c0-1.817 1.473-3.291 3.291-3.291 1.817 0 3.291 1.473 3.291 3.291 0 1.817-1.473 3.291-3.291 3.29-1.817 0-3.291-1.473-3.291-3.29z" fill="#6f605b" data-fill-palette-color="primary"></path><path d="M260.823 144.57c0-1.817 1.473-3.291 3.291-3.291 1.817 0 3.291 1.473 3.291 3.291 0 1.817-1.473 3.291-3.291 3.29-1.817 0-3.291-1.473-3.291-3.29z" fill="#6f605b" data-fill-palette-color="primary"></path></g><g id="text-1"><path d="M11.928 181.773v0l19.637-7.657c2.074-0.576 3.454-0.127 4.139 1.35v0c0.447 1.079 3.26 8.298 8.441 21.658v0c0.561 1.447-0.231 2.586-2.376 3.418v0c-1.088 0.422-1.879-0.004-2.373-1.278v0l-3.06-7.892c-0.197-0.507-0.524-0.846-0.982-1.017-0.449-0.167-0.952-0.143-1.508 0.073v0l-2.568 0.996c-0.748 0.29-1.001 0.747-0.759 1.372v0l2.33 6.009c0.223 0.575 0.258 1.059 0.105 1.453-0.153 0.394-0.706 0.775-1.658 1.144-0.952 0.369-1.615 0.466-1.989 0.291-0.374-0.175-0.682-0.575-0.924-1.199v0l-2.089-5.388c-0.235-0.606-0.542-0.967-0.921-1.083-0.373-0.118-0.875-0.055-1.506 0.189v0l-6.223 2.413c-0.841 0.326-1.539 0.387-2.094 0.183-0.547-0.2-0.933-0.591-1.159-1.172v0l-3.984-10.276c-0.261-0.674-0.263-1.338-0.005-1.993 0.258-0.655 0.767-1.186 1.526-1.594z" fill="#6f605b" data-fill-palette-color="primary"></path><path d="M49.39 215.914v0c5.082 6.732 5.459 11.781 1.13 15.149v0c-1.826 1.445-3.514 2.752-5.064 3.923-1.545 1.167-2.596 1.943-3.152 2.329-0.55 0.382-1.043 0.534-1.476 0.454-0.434-0.08-0.931-0.49-1.49-1.23v0l-4.957-6.565c-0.499-0.662-0.724-1.207-0.673-1.635 0.05-0.429 0.306-0.833 0.766-1.214v0c0.021-0.016 0.052-0.047 0.091-0.094 0.049-0.045 0.095-0.084 0.137-0.116v0c-2.433-0.307-4.539-1.637-6.317-3.992v0c-1.231-1.63-1.87-3.324-1.918-5.083-0.052-1.764 0.639-3.187 2.074-4.269 1.434-1.083 2.888-1.54 4.36-1.373 1.473 0.168 2.788 0.699 3.946 1.595 1.163 0.891 2.23 1.98 3.201 3.266 0.975 1.291 1.805 2.65 2.491 4.076v0l0.127-0.095c1.032-0.779 1.624-1.542 1.776-2.288 0.146-0.742-0.12-1.563-0.8-2.462-0.675-0.894-1.315-1.583-1.92-2.065-0.609-0.487-1.111-0.823-1.507-1.006v0c-1.137-0.471-1.829-0.871-2.077-1.198-0.252-0.333-0.319-0.748-0.203-1.243 0.115-0.486 0.498-0.974 1.149-1.466 0.651-0.491 1.189-0.715 1.613-0.669 0.429 0.05 0.96 0.243 1.596 0.577v0c2.222 1.139 4.588 3.37 7.097 6.694zM35.632 224.02v0c0.687 0.91 1.213 1.244 1.578 1.002v0c0.711-0.478 1.622-1.137 2.733-1.977v0c0.434-0.328 0.403-0.82-0.092-1.475-0.499-0.662-1.064-1.079-1.693-1.252-0.634-0.169-1.261-0.02-1.88 0.447-0.619 0.467-0.976 1.002-1.069 1.605-0.094 0.602 0.047 1.152 0.423 1.65z" fill="#6f605b" data-fill-palette-color="primary"></path><path d="M58.693 247.017v0c0.447-0.568 0.562-1.203 0.346-1.904-0.225-0.7-0.612-1.405-1.159-2.114-0.542-0.705-1.068-1.447-1.577-2.227-0.509-0.78-0.773-1.645-0.792-2.597-0.02-0.961 0.344-1.918 1.094-2.872v0c2.976-3.784 7.401-3.366 13.276 1.254v0c2.523 1.984 4.212 4.004 5.066 6.059v0c0.276 0.647 0.423 1.168 0.442 1.562 0.019 0.394-0.203 0.886-0.667 1.476-0.463 0.589-0.926 0.942-1.389 1.058-0.464 0.107-0.813 0.069-1.048-0.115-0.235-0.184-0.562-0.813-0.984-1.887-0.425-1.068-1.047-1.941-1.864-2.618v0c-0.672-0.529-1.271-0.46-1.795 0.208v0c-0.353 0.448-0.399 0.99-0.139 1.624 0.255 0.631 0.643 1.307 1.163 2.028 0.521 0.722 1.011 1.482 1.47 2.283 0.45 0.801 0.657 1.706 0.622 2.716-0.035 1.01-0.436 2.002-1.202 2.977v0c-2.976 3.784-7.404 3.364-13.283-1.259v0c-2.867-2.255-4.876-4.51-6.029-6.767v0c-0.371-0.655-0.587-1.195-0.647-1.622-0.061-0.427 0.153-0.951 0.64-1.571 0.488-0.62 0.962-0.96 1.423-1.02 0.464-0.065 0.783-0.03 0.954 0.105 0.172 0.135 0.58 0.818 1.223 2.05 0.647 1.226 1.479 2.239 2.495 3.038 1.016 0.799 1.803 0.845 2.361 0.135z" fill="#6f605b" data-fill-palette-color="primary"></path><path d="M79.454 256.217l2.159-4.689c0.175-0.379 0.003-0.688-0.515-0.927v0c-0.915-0.422-1.314-0.974-1.197-1.657v0c0.045-0.352 0.213-0.844 0.505-1.476 0.291-0.632 0.587-1.044 0.886-1.234 0.305-0.188 0.739-0.233 1.299-0.136 0.564 0.107 1.128 0.096 1.69-0.032 0.554-0.125 1.719-0.435 3.495-0.931 1.779-0.487 2.998-0.78 3.657-0.878 0.656-0.092 1.36 0.035 2.113 0.382v0l1.762 0.811c0.819 0.377 1.324 0.73 1.516 1.06 0.192 0.329 0.19 0.704-0.004 1.126v0l-1.544 3.351c-0.227 0.494-0.13 0.838 0.292 1.033v0l3.776 1.739c0.608 0.28 0.988 0.612 1.14 0.996 0.155 0.378 0.017 1.033-0.413 1.967-0.427 0.928-0.842 1.456-1.244 1.584-0.4 0.123-0.879 0.055-1.44-0.203v0l-3.668-1.689c-0.331-0.153-0.581-0.165-0.749-0.039-0.171 0.118-0.328 0.331-0.469 0.638v0l-1.947 4.229c-0.321 0.823-0.33 1.629-0.029 2.417 0.304 0.797 0.963 1.429 1.974 1.895v0c0.494 0.227 1.168 0.373 2.021 0.438 0.854 0.065 1.41 0.157 1.669 0.276v0c0.632 0.291 0.516 1.376-0.349 3.255v0c-0.63 1.367-1.374 2.025-2.233 1.972v0c-0.869-0.094-2.023-0.37-3.463-0.828-1.436-0.464-2.838-1.011-4.205-1.64-1.361-0.627-2.608-1.336-3.739-2.128-1.132-0.791-2.071-1.702-2.816-2.731v0c-1.446-2.06-1.422-4.71 0.07-7.951z" fill="#6f605b" data-fill-palette-color="primary"></path><path d="M146.081 277.318v0c-0.037 0.57-0.291 1.089-0.764 1.559-0.473 0.469-1.097 0.723-1.874 0.762v0c-1.48 0.08-3.255 0.101-5.323 0.063-2.069-0.037-3.967-0.124-5.696-0.261v0c-0.775-0.067-1.393-0.343-1.855-0.829-0.456-0.486-0.691-1.014-0.708-1.585v0c-0.009-3.933 0.012-7.288 0.062-10.066 0.05-2.785 0.1-4.823 0.15-6.116v0c0.018-0.981-0.411-1.48-1.287-1.495v0l-3.49-0.063c-0.544-0.01-0.982-0.147-1.316-0.411-0.333-0.265-0.514-0.722-0.542-1.373-0.022-0.644-0.026-1.317-0.014-2.02 0.013-0.696 0.04-1.296 0.082-1.799 0.049-0.503 0.265-0.887 0.648-1.152 0.376-0.265 0.786-0.394 1.23-0.386v0c3.362 0.007 7.914 0.063 13.656 0.166 5.741 0.103 9.855 0.204 12.34 0.301v0c0.437 0.034 0.839 0.184 1.205 0.45 0.373 0.265 0.575 0.65 0.606 1.155 0.031 0.505 0.04 1.095 0.028 1.771-0.012 0.67-0.037 1.316-0.074 1.938v0c-0.1 1.159-0.744 1.728-1.931 1.707v0l-3.491-0.063c-0.882-0.016-1.331 0.43-1.347 1.339v0c0.021 3.257 0.008 6.204-0.039 8.843-0.047 2.639-0.133 5.161-0.256 7.565z" fill="#6f605b" data-fill-palette-color="primary"></path><path d="M160.619 258.578v0l7.416-1.518c0.858-0.175 1.471-0.105 1.84 0.213 0.371 0.323 0.735 1.129 1.094 2.415 0.352 1.288 0.881 3.661 1.588 7.117 0.709 3.463 1.133 5.917 1.274 7.364v0c0.011 0.451-0.129 0.876-0.42 1.274-0.283 0.403-0.869 0.73-1.759 0.979-0.883 0.248-1.945 0.5-3.186 0.754-1.241 0.254-2.378 0.453-3.411 0.596-1.027 0.142-1.749 0.084-2.168-0.175-0.424-0.252-0.706-0.59-0.847-1.015v0c-0.512-1.608-1.117-4.117-1.815-7.527-0.698-3.411-1.122-5.747-1.272-7.009-0.157-1.261-0.134-2.111 0.067-2.552 0.202-0.434 0.735-0.739 1.599-0.916zM162.885 248.764v0c1.676-0.343 3.005-0.263 3.988 0.239 0.988 0.495 1.601 1.324 1.839 2.487v0c0.561 2.741-0.984 4.486-4.635 5.233v0c-1.468 0.3-2.787 0.239-3.956-0.185-1.168-0.417-1.882-1.26-2.142-2.526v0c-0.556-2.715 1.08-4.465 4.906-5.248z" fill="#6f605b" data-fill-palette-color="primary"></path><path d="M193.475 252.88v0c-1.119 0.487-1.788 1.217-2.009 2.188-0.227 0.974-0.103 2.005 0.372 3.093 0.477 1.094 1.205 1.894 2.185 2.4 0.977 0.5 2.18 0.439 3.609-0.183v0c0.45-0.196 1.061-0.603 1.833-1.222 0.772-0.619 1.337-1.006 1.696-1.162v0c0.827-0.36 1.611 0.245 2.354 1.816v0c0.299 0.687 0.538 1.342 0.716 1.967 0.174 0.633-0.086 1.256-0.781 1.87v0c-2.05 1.769-3.981 3.048-5.792 3.837-1.818 0.792-3.33 1.371-4.537 1.738-1.205 0.373-2.482 0.611-3.833 0.715-1.348 0.11-2.552 0.002-3.613-0.324-1.061-0.326-2.081-0.949-3.06-1.867-0.976-0.913-1.839-2.229-2.589-3.95-0.75-1.72-1.045-3.418-0.885-5.093 0.16-1.675 0.735-3.152 1.726-4.43v0c1.888-2.407 4.683-4.417 8.385-6.03v0c1.988-0.866 4.154-1.43 6.499-1.693v0c1-0.096 1.855 0.671 2.565 2.3 0.707 1.623 0.648 2.615-0.18 2.975v0c-0.359 0.156-1.066 0.302-2.121 0.436-1.055 0.134-1.902 0.341-2.54 0.619z" fill="#6f605b" data-fill-palette-color="primary"></path><path d="M235.014 240.276l-4.136 3.413-3.356 2.635c-0.766 0.613-1.488 0.809-2.167 0.587v0l-6.397-2.23c-0.265 0.008-0.401 0.04-0.407 0.096-0.001 0.052 0.256 0.411 0.772 1.076 0.516 0.666 1.254 1.705 2.216 3.119v0c0.22 0.359 0.293 0.78 0.221 1.263-0.073 0.492-0.433 1.03-1.078 1.614-0.64 0.58-1.441 1.255-2.404 2.026-0.958 0.767-2.046 1.587-3.266 2.462v0c-0.503 0.369-0.991 0.534-1.463 0.495-0.473-0.029-0.869-0.2-1.189-0.513v0c-2.174-2.303-4.91-5.514-8.209-9.636-3.294-4.116-5.613-7.177-6.956-9.185v0c-0.489-0.738-0.752-1.348-0.788-1.828-0.04-0.486 0.273-0.996 0.941-1.53v0l5.816-4.655c0.663-0.53 1.232-0.727 1.707-0.59 0.471 0.132 1.013 0.518 1.627 1.157v0c1.524 1.66 3.943 4.56 7.258 8.702v0c0.373 0.466 0.642 0.633 0.808 0.5v0c0.098-0.079 0.16-0.23 0.184-0.453v0l1.06-6.811c0.101-0.574 0.226-0.996 0.374-1.267 0.148-0.271 0.424-0.569 0.828-0.892v0l4.418-3.537c0.264-0.211 0.597-0.193 0.999 0.055v0c0.098 0.049 0.214 0.156 0.346 0.321 0.128 0.16 0.173 0.422 0.133 0.786v0l-1.251 7.065c-0.032 0.289 0.105 0.46 0.41 0.513v0c3.731 0.725 7.888 1.738 12.472 3.038v0c0.467 0.127 0.798 0.313 0.992 0.556v0c0.402 0.502 0.23 1.052-0.515 1.648z" fill="#6f605b" data-fill-palette-color="primary"></path><path d="M230.345 216.669c0.216-1.311 0.582-2.552 1.097-3.723 0.515-1.171 1.309-2.511 2.381-4.019 1.072-1.508 2.282-2.816 3.631-3.923 1.34-1.106 2.566-1.772 3.678-1.998v0c2.003-0.358 3.783 0.017 5.34 1.123v0c2.448 1.74 2.203 4.678-0.737 8.813v0c-1.033 1.454-2.243 2.864-3.629 4.229v0c1.44 0.926 2.606 1.364 3.496 1.314 0.89-0.051 1.746-0.654 2.569-1.811 0.826-1.162 1.381-2.212 1.664-3.149 0.293-0.939 0.472-1.735 0.539-2.387 0.062-0.648 0.21-1.136 0.444-1.466 0.231-0.324 0.577-0.497 1.039-0.518v0c0.636-0.093 1.286 0.097 1.951 0.569 0.665 0.473 1.025 0.928 1.079 1.365 0.05 0.434-0.011 1.017-0.182 1.75v0c-0.582 2.604-2.185 5.752-4.809 9.444v0c-2.171 3.054-4.69 5.046-7.557 5.977-2.867 0.931-5.543 0.514-8.029-1.254v0c-1.205-0.857-2.15-1.862-2.835-3.016-0.685-1.154-1.098-2.335-1.241-3.542-0.138-1.213-0.102-2.472 0.111-3.778zM237.828 210.932v0c-0.914 1.286-0.367 2.725 1.642 4.317v0c0.805-0.949 1.223-1.445 1.254-1.489v0c0.991-1.394 1.022-2.422 0.092-3.083v0c-1.243-0.884-2.239-0.799-2.988 0.255z" fill="#6f605b" data-fill-palette-color="primary"></path><path d="M253.293 197.733l-4.815-1.861c-0.39-0.151-0.687 0.04-0.893 0.572v0c-0.363 0.94-0.89 1.373-1.579 1.299v0c-0.354-0.023-0.855-0.16-1.505-0.411-0.649-0.251-1.079-0.52-1.287-0.807-0.207-0.293-0.279-0.723-0.217-1.289 0.071-0.57 0.025-1.131-0.138-1.685-0.159-0.545-0.542-1.688-1.148-3.429-0.598-1.745-0.967-2.943-1.106-3.595-0.133-0.649-0.05-1.36 0.248-2.133v0l0.7-1.809c0.325-0.841 0.646-1.368 0.962-1.579 0.316-0.212 0.691-0.234 1.124-0.067v0l3.442 1.33c0.507 0.196 0.844 0.078 1.012-0.355v0l1.499-3.878c0.241-0.625 0.549-1.025 0.922-1.2 0.367-0.178 1.03-0.082 1.989 0.289 0.953 0.368 1.506 0.749 1.659 1.142 0.147 0.391 0.11 0.874-0.112 1.449v0l-1.456 3.767c-0.131 0.34-0.129 0.59 0.009 0.75 0.129 0.164 0.351 0.306 0.666 0.428v0l4.342 1.678c0.842 0.268 1.647 0.228 2.415-0.122 0.777-0.354 1.366-1.05 1.767-2.09v0c0.196-0.507 0.299-1.189 0.31-2.044 0.011-0.856 0.068-1.417 0.171-1.683v0c0.251-0.649 1.341-0.601 3.271 0.144v0c1.404 0.543 2.107 1.244 2.108 2.106v0c-0.039 0.874-0.242 2.043-0.609 3.507-0.373 1.462-0.831 2.896-1.374 4.3-0.54 1.398-1.17 2.686-1.889 3.866-0.719 1.179-1.569 2.173-2.549 2.981v0c-1.965 1.572-4.612 1.715-7.939 0.429z" fill="#6f605b" data-fill-palette-color="primary"></path></g></svg></g></svg></g></svg></g></svg></g><defs></defs></svg><rect width="279.72" height="279.72" fill="none" stroke="none" visibility="hidden"></rect></g></svg></g></svg>